<svg width="20" height="36" viewBox="0 0 20 36" fill="none" xmlns="http://www.w3.org/2000/svg">
<path d="M19.2352 35.2076C19.7249 34.7 20 34.0118 20 33.2941C20 32.5765 19.7249 31.8882 19.2352 31.3806L6.30514 17.9837L19.2352 4.58667C19.711 4.07623 19.9743 3.39257 19.9684 2.68294C19.9624 1.97332 19.6877 1.2945 19.2034 0.792704C18.7191 0.290904 18.0639 0.00627094 17.379 0.00010449C16.6941 -0.00606196 16.0343 0.266734 15.5416 0.759738L0.764797 16.0702C0.275098 16.5777 0 17.266 0 17.9837C0 18.7013 0.275098 19.3896 0.764797 19.8971L15.5416 35.2076C16.0315 35.715 16.6958 36 17.3884 36C18.0811 36 18.7454 35.715 19.2352 35.2076Z" fill="white"/>
</svg>
