<svg width="7" height="7" viewBox="0 0 7 7" fill="none" xmlns="http://www.w3.org/2000/svg">
<path d="M6.82759 2.8032L3.91333 0.151173C3.8579 0.102884 3.79253 0.0650319 3.72099 0.0397876C3.57909 -0.0132625 3.41992 -0.0132625 3.27802 0.0397876C3.20647 0.0650319 3.14111 0.102884 3.08568 0.151173L0.171412 2.8032C0.117068 2.85265 0.0739597 2.91137 0.0445488 2.97598C0.0151378 3.0406 0 3.10985 0 3.17979C0 3.32104 0.0616588 3.4565 0.171412 3.55638C0.281166 3.65625 0.430023 3.71236 0.585238 3.71236C0.740453 3.71236 0.88931 3.65625 0.999064 3.55638L2.91665 1.80604L2.91665 5.83182C2.91665 5.97249 2.97806 6.1074 3.08736 6.20687C3.19667 6.30634 3.34492 6.36222 3.4995 6.36222C3.65409 6.36222 3.80234 6.30634 3.91164 6.20687C4.02095 6.1074 4.08236 5.97249 4.08236 5.83182L4.08236 1.80604L5.99994 3.55638C6.05413 3.60609 6.11859 3.64555 6.18962 3.67248C6.26064 3.69941 6.33682 3.71327 6.41377 3.71327C6.49071 3.71327 6.56689 3.69941 6.63792 3.67248C6.70895 3.64555 6.77341 3.60609 6.82759 3.55638C6.88222 3.50707 6.92559 3.44841 6.95518 3.38377C6.98477 3.31914 7 3.24981 7 3.17979C7 3.10977 6.98477 3.04044 6.95518 2.97581C6.92559 2.91117 6.88222 2.85251 6.82759 2.8032Z" fill="#1B3C6C" fill-opacity="0.38"/>
</svg>
