<svg width="20" height="36" viewBox="0 0 20 36" fill="none" xmlns="http://www.w3.org/2000/svg">
<path d="M0.764799 0.792415C0.275099 1.29995 4.94927e-07 1.98823 4.94927e-07 2.70588C4.94927e-07 3.42354 0.275099 4.11182 0.764799 4.61935L13.6949 18.0163L0.764799 31.4133C0.288977 31.9238 0.0256887 32.6074 0.0316403 33.3171C0.0375918 34.0267 0.312307 34.7055 0.796618 35.2073C1.28093 35.7091 1.93609 35.9937 2.62098 35.9999C3.30587 36.0061 3.9657 35.7333 4.45836 35.2403L19.2352 19.9298C19.7249 19.4223 20 18.734 20 18.0163C20 17.2987 19.7249 16.6104 19.2352 16.1029L4.45836 0.792415C3.96851 0.285032 3.30422 0 2.61158 0C1.91893 0 1.25465 0.285032 0.764799 0.792415Z" fill="white"/>
</svg>
