<svg width="7" height="7" viewBox="0 0 7 7" fill="none" xmlns="http://www.w3.org/2000/svg">
<path d="M3.91579 6.20552L6.83367 3.55678C6.8868 3.5064 6.92845 3.44699 6.95622 3.38196C7.01459 3.25299 7.01459 3.10833 6.95622 2.97935C6.92845 2.91433 6.8868 2.85492 6.83367 2.80454L3.91579 0.155795C3.86138 0.106402 3.79679 0.0672212 3.72569 0.0404899C3.6546 0.0137586 3.5784 0 3.50145 0C3.34605 0 3.19701 0.056041 3.08712 0.155795C2.97723 0.255548 2.91549 0.390843 2.91549 0.531916C2.91549 0.672989 2.97723 0.808284 3.08712 0.908038L5.01292 2.65091L0.583576 2.65091C0.428802 2.65091 0.280367 2.70672 0.170925 2.80607C0.0614834 2.90542 0 3.04016 0 3.18066C0 3.32116 0.0614834 3.4559 0.170925 3.55525C0.280367 3.6546 0.428802 3.71041 0.583576 3.71041L5.01292 3.71041L3.08712 5.45328C3.03242 5.50253 2.989 5.56112 2.95938 5.62567C2.92975 5.69023 2.91449 5.75947 2.91449 5.8294C2.91449 5.89934 2.92975 5.96858 2.95938 6.03313C2.989 6.09769 3.03242 6.15628 3.08712 6.20552C3.14137 6.25518 3.20591 6.29459 3.27702 6.32148C3.34814 6.34838 3.42442 6.36222 3.50145 6.36222C3.57849 6.36222 3.65477 6.34838 3.72588 6.32148C3.797 6.29459 3.86154 6.25518 3.91579 6.20552Z" fill="#1B3C6C" fill-opacity="0.38"/>
</svg>
