<svg width="16" height="14" viewBox="0 0 16 14" fill="none" xmlns="http://www.w3.org/2000/svg">
<path d="M5.757 0.0646433C5.81335 0.0953104 5.86249 0.135766 5.90163 0.1837C5.94077 0.231634 5.96914 0.286107 5.98511 0.344007C6.00108 0.401907 6.00435 0.4621 5.99472 0.521148C5.98509 0.580195 5.96276 0.63694 5.929 0.688141L3.383 4.54456H12.617L10.07 0.688141C10.0018 0.58473 9.98167 0.460944 10.0139 0.344015C10.0462 0.227087 10.1282 0.126594 10.242 0.0646433C10.3558 0.00269286 10.492 -0.0156402 10.6206 0.0136772C10.7493 0.0429945 10.8598 0.117561 10.928 0.220972L13.783 4.54456H15C15.2652 4.54456 15.5196 4.64031 15.7071 4.81076C15.8946 4.98121 16 5.21239 16 5.45345V6.36233C16 6.60339 15.8946 6.83457 15.7071 7.00502C15.5196 7.17547 15.2652 7.27122 15 7.27122V11.3612C15 11.9639 14.7366 12.5418 14.2678 12.9679C13.7989 13.3941 13.163 13.6334 12.5 13.6334H3.5C2.83696 13.6334 2.20107 13.3941 1.73223 12.9679C1.26339 12.5418 1 11.9639 1 11.3612V7.27122C0.734784 7.27122 0.48043 7.17547 0.292893 7.00502C0.105357 6.83457 0 6.60339 0 6.36233V5.45345C0 5.21239 0.105357 4.98121 0.292893 4.81076C0.48043 4.64031 0.734784 4.54456 1 4.54456H2.217L5.07 0.220972C5.10374 0.16976 5.14825 0.125091 5.20099 0.0895173C5.25373 0.0539434 5.31366 0.0281614 5.37737 0.0136442C5.44107 -0.000872984 5.5073 -0.00384101 5.57227 0.00490954C5.63723 0.0136601 5.70067 0.0339578 5.757 0.0646433ZM2 7.27122V11.3612C2 11.7228 2.15804 12.0696 2.43934 12.3252C2.72064 12.5809 3.10218 12.7246 3.5 12.7246H12.5C12.8978 12.7246 13.2794 12.5809 13.5607 12.3252C13.842 12.0696 14 11.7228 14 11.3612V7.27122H2ZM1 5.45345V6.36233H15V5.45345H1ZM4 8.18011C4.13261 8.18011 4.25979 8.22799 4.35355 8.31322C4.44732 8.39844 4.5 8.51403 4.5 8.63456V11.3612C4.5 11.4817 4.44732 11.5973 4.35355 11.6826C4.25979 11.7678 4.13261 11.8157 4 11.8157C3.86739 11.8157 3.74021 11.7678 3.64645 11.6826C3.55268 11.5973 3.5 11.4817 3.5 11.3612V8.63456C3.5 8.51403 3.55268 8.39844 3.64645 8.31322C3.74021 8.22799 3.86739 8.18011 4 8.18011ZM6 8.18011C6.13261 8.18011 6.25979 8.22799 6.35355 8.31322C6.44732 8.39844 6.5 8.51403 6.5 8.63456V11.3612C6.5 11.4817 6.44732 11.5973 6.35355 11.6826C6.25979 11.7678 6.13261 11.8157 6 11.8157C5.86739 11.8157 5.74021 11.7678 5.64645 11.6826C5.55268 11.5973 5.5 11.4817 5.5 11.3612V8.63456C5.5 8.51403 5.55268 8.39844 5.64645 8.31322C5.74021 8.22799 5.86739 8.18011 6 8.18011ZM8 8.18011C8.13261 8.18011 8.25979 8.22799 8.35355 8.31322C8.44732 8.39844 8.5 8.51403 8.5 8.63456V11.3612C8.5 11.4817 8.44732 11.5973 8.35355 11.6826C8.25979 11.7678 8.13261 11.8157 8 11.8157C7.86739 11.8157 7.74021 11.7678 7.64645 11.6826C7.55268 11.5973 7.5 11.4817 7.5 11.3612V8.63456C7.5 8.51403 7.55268 8.39844 7.64645 8.31322C7.74021 8.22799 7.86739 8.18011 8 8.18011ZM10 8.18011C10.1326 8.18011 10.2598 8.22799 10.3536 8.31322C10.4473 8.39844 10.5 8.51403 10.5 8.63456V11.3612C10.5 11.4817 10.4473 11.5973 10.3536 11.6826C10.2598 11.7678 10.1326 11.8157 10 11.8157C9.86739 11.8157 9.74021 11.7678 9.64645 11.6826C9.55268 11.5973 9.5 11.4817 9.5 11.3612V8.63456C9.5 8.51403 9.55268 8.39844 9.64645 8.31322C9.74021 8.22799 9.86739 8.18011 10 8.18011ZM12 8.18011C12.1326 8.18011 12.2598 8.22799 12.3536 8.31322C12.4473 8.39844 12.5 8.51403 12.5 8.63456V11.3612C12.5 11.4817 12.4473 11.5973 12.3536 11.6826C12.2598 11.7678 12.1326 11.8157 12 11.8157C11.8674 11.8157 11.7402 11.7678 11.6464 11.6826C11.5527 11.5973 11.5 11.4817 11.5 11.3612V8.63456C11.5 8.51403 11.5527 8.39844 11.6464 8.31322C11.7402 8.22799 11.8674 8.18011 12 8.18011Z" fill="#1B3C6C"/>
</svg>
