<svg width="18" height="19" viewBox="0 0 18 19" fill="none" xmlns="http://www.w3.org/2000/svg">
<path d="M17 17.1774L11.6667 11.8239M1 7.36271C1 8.18291 1.16094 8.99508 1.47364 9.75284C1.78633 10.5106 2.24466 11.1991 2.82245 11.7791C3.40023 12.3591 4.08617 12.8191 4.84108 13.133C5.596 13.4469 6.40511 13.6084 7.22222 13.6084C8.03934 13.6084 8.84845 13.4469 9.60336 13.133C10.3583 12.8191 11.0442 12.3591 11.622 11.7791C12.1998 11.1991 12.6581 10.5106 12.9708 9.75284C13.2835 8.99508 13.4444 8.18291 13.4444 7.36271C13.4444 6.54251 13.2835 5.73035 12.9708 4.97258C12.6581 4.21482 12.1998 3.5263 11.622 2.94633C11.0442 2.36636 10.3583 1.90631 9.60336 1.59243C8.84845 1.27855 8.03934 1.117 7.22222 1.117C6.40511 1.117 5.596 1.27855 4.84108 1.59243C4.08617 1.90631 3.40023 2.36636 2.82245 2.94633C2.24466 3.5263 1.78633 4.21482 1.47364 4.97258C1.16094 5.73035 1 6.54251 1 7.36271Z" stroke="white" stroke-width="2" stroke-linecap="round" stroke-linejoin="round"/>
</svg>
