<svg width="21" height="16" viewBox="0 0 21 16" fill="none" xmlns="http://www.w3.org/2000/svg">
<path fill-rule="evenodd" clip-rule="evenodd" d="M4.52256 9.6909C4.56692 9.70379 4.61252 9.71313 4.65882 9.7188C4.95088 10.3187 5.2413 10.9192 5.53008 11.5204C6.04932 12.602 6.57269 13.7161 6.68728 14.0365C6.83076 14.4306 6.98148 14.6988 7.14664 14.8824C7.23233 14.9759 7.33039 15.0587 7.44601 15.1217C7.50624 15.1546 7.57068 15.1812 7.63802 15.2009C7.96835 15.3089 8.26978 15.2639 8.45869 15.209C8.56954 15.176 8.67503 15.1307 8.7725 15.074L8.77767 15.0722L11.6949 13.4866L15.0654 15.7382C15.1149 15.7714 15.1686 15.7993 15.2264 15.8218C15.631 15.9748 16.0233 16.0288 16.3929 15.9856C16.7604 15.9406 17.0525 15.8065 17.2703 15.6545C17.5204 15.4787 17.7198 15.2544 17.8525 14.9993L17.8618 14.9795L17.8649 14.9723L17.867 14.9687V14.9669L17.868 14.966C17.886 14.9273 17.8998 14.8873 17.9093 14.8464L20.9855 1.32554C20.9953 1.28226 21.0001 1.23826 21 1.19416C21 0.798209 20.8286 0.421156 20.4271 0.193485C20.0823 -0.0017911 19.6993 -0.0107901 19.4567 0.00540789C19.1966 0.0234057 18.955 0.0791987 18.793 0.124193C18.7022 0.149259 18.6127 0.177479 18.5246 0.208783L18.5132 0.213282L1.25949 6.11295L1.25742 6.11385C1.19905 6.13257 1.14154 6.15328 1.08503 6.17594C0.948211 6.22956 0.816966 6.29339 0.692758 6.36672C0.458428 6.5062 -0.0814603 6.88955 0.0104137 7.52307C0.0826741 8.02701 0.479074 8.33747 0.721662 8.48685C0.853796 8.56874 0.979735 8.62724 1.07264 8.66593C1.11393 8.68393 1.20271 8.71453 1.24091 8.72892L1.25123 8.73162L4.52256 9.6909ZM19.1171 1.45513H19.115C19.1062 1.45857 19.0972 1.46187 19.0882 1.46503L1.81383 7.37279C1.80494 7.37592 1.79599 7.37892 1.78699 7.38179L1.77666 7.38449C1.74511 7.3953 1.71411 7.40731 1.68376 7.42049C1.71249 7.43483 1.74213 7.44775 1.77254 7.45918L5.016 8.41126C5.07396 8.42829 5.1294 8.45125 5.18116 8.47965L15.8933 3.01283L15.9036 3.00833C15.9452 2.98629 15.9879 2.96587 16.0316 2.94714C16.1059 2.91385 16.2246 2.86525 16.3588 2.82926C16.4517 2.80406 16.7273 2.73297 17.0246 2.81666C17.1823 2.85999 17.3229 2.9411 17.4302 3.05074C17.5375 3.16037 17.6073 3.29411 17.6316 3.43668C17.6701 3.56154 17.6711 3.69291 17.6347 3.81823C17.5625 4.0657 17.3643 4.25828 17.1826 4.40586C17.0277 4.53185 15.0199 6.22004 13.039 7.88663L10.3416 10.1543L9.86157 10.5593L15.9232 14.6106C16.005 14.6405 16.0939 14.6529 16.1823 14.6466C16.2268 14.6413 16.2687 14.6251 16.3031 14.5998C16.3449 14.569 16.3808 14.5325 16.4094 14.4918L16.4115 14.4909L19.3948 1.37684C19.3008 1.39654 19.2087 1.42241 19.1192 1.45423L19.1171 1.45513ZM10.3829 12.6083L9.17303 11.8002L8.87986 13.4245L10.3829 12.6083ZM8.06332 10.1966L9.26594 9.18427L11.9633 6.91475L12.9677 6.07065L6.2372 9.50553L6.27333 9.57932C6.69781 10.4535 7.11761 11.3294 7.53272 12.207L7.82486 10.5872C7.8513 10.437 7.93535 10.2999 8.06332 10.1966Z" fill="white"/>
</svg>
