<svg width="24" height="16" viewBox="0 0 24 16" fill="none" xmlns="http://www.w3.org/2000/svg">
<path fill-rule="evenodd" clip-rule="evenodd" d="M23.8092 13.0241C23.2499 11.8463 22.5128 10.7703 21.6263 9.83752C21.3298 9.48717 21.0193 9.15001 20.6957 8.82692L20.6566 8.78714C20.5365 8.66514 20.4179 8.5415 20.3008 8.41623C21.5127 6.65424 22.5498 4.76773 23.3959 2.78593L23.4298 2.70637L23.4535 2.62251C23.5656 2.23225 23.6931 1.49043 23.2406 0.819566C22.7717 0.127201 22.0221 0.00248876 21.5193 0.00248876H19.2088C18.725 -0.0205624 18.2467 0.116985 17.8422 0.395448C17.4377 0.67391 17.1279 1.07901 16.957 1.55279C16.4597 2.79092 15.8372 3.96985 15.0999 5.06944V2.2387C15.0999 1.87317 15.067 1.26036 14.6917 0.744309C14.2434 0.12505 13.5946 0.00248876 13.1442 0.00248876H9.47743C8.99895 -0.009022 8.53457 0.172313 8.18046 0.508942C7.82634 0.84557 7.60961 1.3117 7.57516 1.81081L7.57207 1.85919V1.90757C7.57207 2.42899 7.7695 2.81388 7.92785 3.05578C7.9988 3.16436 8.07386 3.26327 8.12219 3.32563L8.13247 3.3396C8.18388 3.40626 8.21782 3.45034 8.25175 3.49979C8.34223 3.62666 8.47077 3.82447 8.50778 4.33407V5.9177C7.77173 4.629 7.16821 3.26245 6.70731 1.84091L6.69908 1.81726L6.69086 1.79468C6.56541 1.45173 6.3649 0.952879 5.96285 0.572293C5.49397 0.126126 4.93871 0.00248876 4.43384 0.00248876H2.08941C1.57837 0.00248876 0.962447 0.127201 0.502817 0.633574C0.0514128 1.13242 0 1.73018 0 2.04626V2.19032L0.0287911 2.33008C0.677929 5.48096 2.01562 8.43205 3.93719 10.9524C4.81571 12.4009 6.00839 13.6125 7.4185 14.4889C8.82861 15.3654 10.4164 15.8819 12.0532 15.9968L12.0954 16H12.1386C12.8851 16 13.6635 15.9323 14.2485 15.5248C15.0372 14.9744 15.0999 14.1304 15.0999 13.709V12.4855C15.3025 12.6575 15.5534 12.8876 15.8608 13.1972C16.2331 13.5864 16.5292 13.924 16.7832 14.2186L16.9189 14.3755C17.1163 14.6056 17.3107 14.8324 17.4875 15.0184C17.7096 15.2517 17.9842 15.5087 18.3276 15.699C18.7009 15.9043 19.0926 15.9979 19.5081 15.9979H21.8535C22.3481 15.9979 23.0566 15.8753 23.5553 15.2711C24.0982 14.6131 24.0571 13.8057 23.8864 13.2262L23.8555 13.122L23.8092 13.0241ZM17.9276 13.1381C17.6089 12.7656 17.2808 12.4021 16.9436 12.0479L16.9405 12.0447C15.5452 10.6385 14.8943 10.3944 14.4336 10.3944C14.1879 10.3944 13.9174 10.4224 13.7416 10.6524C13.6624 10.7622 13.6105 10.8907 13.5904 11.0266C13.5657 11.1843 13.5546 11.3441 13.5575 11.5039V13.709C13.5575 13.9831 13.5144 14.0981 13.393 14.182C13.2316 14.2949 12.8871 14.3863 12.1478 14.3863C10.7434 14.2864 9.38178 13.8394 8.17481 13.082C6.96784 12.3247 5.95002 11.2787 5.20503 10.03L5.1968 10.016L5.18652 10.0031C3.39645 7.67351 2.14889 4.94069 1.54238 2.02045C1.5465 1.88069 1.57529 1.79576 1.62259 1.74415C1.67091 1.6904 1.78916 1.61514 2.08941 1.61514H4.43384C4.69398 1.61514 4.82971 1.67535 4.9274 1.76673C5.03639 1.87209 5.13305 2.04948 5.24821 2.36556C5.82404 4.13518 6.6014 5.79084 7.33866 7.00678C7.70677 7.61528 8.06872 8.12166 8.3957 8.47966C8.5592 8.65813 8.71858 8.8065 8.87179 8.91186C9.01883 9.01292 9.18643 9.09355 9.35918 9.09355C9.44967 9.09355 9.55558 9.0828 9.65737 9.03657C9.76731 8.9858 9.85781 8.89798 9.91444 8.78714C10.0203 8.58502 10.0502 8.28722 10.0502 7.89696V4.27064C9.99567 3.39121 9.74169 2.89559 9.49491 2.54403C9.44493 2.47371 9.39351 2.40453 9.34067 2.33653L9.3273 2.31933C9.28345 2.26365 9.24161 2.20627 9.20186 2.14732C9.15124 2.08157 9.12078 2.00138 9.11445 1.91724C9.12252 1.83181 9.16151 1.75284 9.22344 1.69648C9.28538 1.64012 9.36557 1.61063 9.44761 1.61407H13.1442C13.356 1.61407 13.427 1.66782 13.4629 1.71835C13.5144 1.78823 13.5575 1.93337 13.5575 2.2387V7.10676C13.5575 7.68517 13.8126 8.0765 14.1827 8.0765C14.6084 8.0765 14.9159 7.80665 15.4526 7.24545L15.4619 7.2347L15.4701 7.22502C16.6742 5.69008 17.6579 3.97991 18.3903 2.14839L18.3945 2.13549C18.4495 1.97367 18.5537 1.83512 18.691 1.74098C18.8284 1.64683 18.9915 1.60226 19.1554 1.61407H21.5204C21.8412 1.61407 21.9461 1.70007 21.981 1.7506C22.017 1.80436 22.0427 1.91939 21.981 2.14517C21.1364 4.11943 20.0923 5.9936 18.8664 7.7357L18.8582 7.7486C18.74 7.93889 18.6094 8.14961 18.5909 8.39043C18.5703 8.65061 18.6772 8.88605 18.8654 9.13978C19.0022 9.3505 19.2849 9.6397 19.5718 9.9332L19.5985 9.96115C19.8988 10.2686 20.2248 10.6019 20.4859 10.9244L20.4931 10.932L20.5003 10.9406C21.2791 11.7528 21.9268 12.6917 22.418 13.7208C22.4962 14.0003 22.4489 14.1444 22.3872 14.2186C22.3162 14.3046 22.1568 14.3852 21.8545 14.3852H19.5081C19.3481 14.3893 19.1899 14.3504 19.0484 14.2723C18.8751 14.1669 18.7177 14.035 18.5816 13.881C18.4346 13.7272 18.2752 13.5412 18.0798 13.3144L17.9287 13.1381H17.9276Z" fill="white"/>
</svg>
